Coordinates
version=1
nRows=4
nColumns=107
inDegrees=yes

Units are S.I. units (second, meters, Newtons, ...)
If the header above contains a line with 'inDegrees', this indicates whether rotational values are in degrees (yes) or radians (no).

endheader
time	sternoclavicular_r2	sternoclavicular_r3	unrotscap_r3	unrotscap_r2	acromioclavicular_r2	acromioclavicular_r3	acromioclavicular_r1	unrothum_r1	unrothum_r3	unrothum_r2	elv_angle	shoulder_elv	shoulder1_r2	shoulder_rot	elbow_flexion	pro_sup	deviation	flexion	proximal_distal_r1	proximal_distal_r3	cmc_flexion	cmc_abduction	mp_flexion	ip_flexion	mcp2_flexion	mcp2_abduction	pm2_flexion	md2_flexion	mcp3_flexion	mcp3_abduction	pm3_flexion	md3_flexion	mcp4_flexion	mcp4_abduction	pm4_flexion	md4_flexion	mcp5_flexion	mcp5_abduction	pm5_flexion	md5_flexion	bicpt_tx	bicpt_ty	bicpt_tz	bicpt2_tx	bicpt2_ty	bicpt2_tz	ptpt_tx	ptpt_ty	ptpt_tz	FCUpt_tx	FCUpt_ty	FCUpt_tz	EDCpt_tx	EDCpt_ty	EDCpt_tz	APLpt_tx	APLpt_ty	APLpt_tz	FPLpt_tx	FPLpt_ty	FPLpt_tz	FPLpt2_tx	FPLpt2_ty	FPLpt2_tz	PEC1pt2_tx	PEC1pt2_ty	PEC1pt2_tz	PEC1pt3_tx	PEC1pt3_ty	PEC1pt3_tz	PEC2pt2_tx	PEC2pt2_ty	PEC2pt2_tz	PEC2pt3_tx	PEC2pt3_ty	PEC2pt3_tz	PEC3pt2_tx	PEC3pt2_ty	PEC3pt2_tz	PEC3pt3_tx	PEC3pt3_ty	PEC3pt3_tz	DELT2pt2a_tx	DELT2pt2a_ty	DELT2pt2a_tz	DELT2pt2_tx	DELT2pt2_ty	DELT2pt2_tz	LAT1pt2_tx	LAT1pt2_ty	LAT1pt2_tz	LAT1pt3_tx	LAT1pt3_ty	LAT1pt3_tz	LAT2pt2_tx	LAT2pt2_ty	LAT2pt2_tz	LAT2pt3_tx	LAT2pt3_ty	LAT2pt3_tz	LAT3pt2_tx	LAT3pt2_ty	LAT3pt2_tz	LAT3pt3_tx	LAT3pt3_ty	LAT3pt3_tz
      0.53333333	     -0.32546598	      0.13785203	     -0.13785203	      0.32546598	     -0.06590024	      0.53258257	      0.23939220	     -0.23939220	     -0.53258257	      0.06590024	     99.45846429	     77.05696453	     -1.73587767	    -22.05697538	     27.86357986	     42.21509069	      0.15184260	      0.06421465	      0.18720027	      0.03210733	     32.48957051	    -10.87382867	     15.62308545	      0.92744387	     -7.68783627	     13.30794655	      8.37114943	    -38.47766440	    -18.23316954	     -1.22398126	      5.75806458	      9.77630130	    -18.06161074	     -8.37511751	    -10.63240283	     21.59757786	    -34.53234315	    -13.79124005	     -8.51067276	      4.90418658	      0.00082164	     -0.03079359	     -0.00481440	      0.01657295	     -0.01776928	     -0.00723014	      0.00443078	     -0.06691694	     -0.00345065	      0.00800400	     -0.18344829	     -0.00040030	     -0.00506580	      0.00147111	      0.00012919	     -0.00006915	     -0.00002766	     -0.00013829	     -0.00008851	     -0.00026553	     -0.00014936	     -0.00001132	     -0.00022584	     -0.00027101	      0.00252576	      0.00886156	      0.00616456	     -0.00826223	      0.01994921	     -0.01892178	      0.00252576	      0.00886156	      0.00616456	      0.00055652	      0.01849369	     -0.00971775	      0.00398149	      0.00492780	      0.01604906	      0.00000000	      0.00794228	      0.00000000	     -0.00723480	     -0.03343419	     -0.00654967	      0.01493499	     -0.00049594	     -0.00404508	     -0.00089900	      0.01506893	     -0.00616456	      0.00248295	      0.02174721	     -0.01797997	     -0.00603613	      0.01305689	     -0.00552242	     -0.01258598	      0.02756929	     -0.03086562	     -0.02363082	      0.01459803	     -0.00740604	     -0.01566826	      0.03185024	     -0.03857132
      0.56666667	     -0.32542638	      0.13783526	     -0.13783526	      0.32542638	     -0.06589222	      0.53251776	      0.23936307	     -0.23936307	     -0.53251776	      0.06589222	     99.45988869	     77.04758807	     -1.73590253	    -22.05531016	     27.86144951	     42.21377858	      0.15181311	      0.06425378	      0.18716744	      0.03212689	     32.48983022	    -10.87481699	     15.62292978	      0.92759201	     -7.68712022	     13.30761873	      8.37123666	    -38.47732300	    -18.23149195	     -1.22393950	      5.75864306	      9.77625037	    -18.06023260	     -8.37461879	    -10.63182366	     21.59734272	    -34.53135600	    -13.79095955	     -8.51050531	      4.90424116	      0.00082157	     -0.03079335	     -0.00481436	      0.01657294	     -0.01776870	     -0.00723027	      0.00443088	     -0.06691688	     -0.00345055	      0.00800387	     -0.18344832	     -0.00040029	     -0.00506564	      0.00147105	      0.00012920	     -0.00006920	     -0.00002768	     -0.00013840	     -0.00008857	     -0.00026572	     -0.00014947	     -0.00001132	     -0.00022581	     -0.00027097	      0.00252545	      0.00886048	      0.00616381	     -0.00826122	      0.01994678	     -0.01891948	      0.00252545	      0.00886048	      0.00616381	      0.00055646	      0.01849144	     -0.00971657	      0.00398113	      0.00492720	      0.01604821	      0.00000000	      0.00794033	      0.00000000	     -0.00723392	     -0.03343012	     -0.00654805	      0.01493403	     -0.00049589	     -0.00404451	     -0.00089889	      0.01506710	     -0.00616381	      0.00248265	      0.02174456	     -0.01797779	     -0.00603540	      0.01305530	     -0.00552175	     -0.01258445	      0.02756594	     -0.03086187	     -0.02362795	      0.01459625	     -0.00740514	     -0.01566636	      0.03184636	     -0.03856663
      0.60000000	     -0.32308301	      0.13684272	     -0.13684272	      0.32308301	     -0.06541774	      0.52868315	      0.23763944	     -0.23763944	     -0.52868315	      0.06541774	     99.97115738	     76.49277524	     -1.74482585	    -25.06382787	     28.07051591	     45.01030835	      0.13240196	      0.05477934	      0.16533997	      0.02738967	     32.63270410	    -11.42950249	     15.09262709	      1.74434320	     -7.42650324	     13.21254770	      8.10231521	    -37.40881124	    -18.11466713	     -1.16830543	      5.95724979	      8.92197580	    -17.76342172	     -8.07136117	    -10.95545289	     20.07479378	    -34.26638444	    -13.75611878	     -9.04745639	      4.93646560	      0.00082849	     -0.03081731	     -0.00481822	      0.01655505	     -0.01782549	     -0.00691757	      0.00422425	     -0.06705049	     -0.00367582	      0.00828854	     -0.18338727	     -0.00041253	     -0.00540122	      0.00158793	      0.00010365	     -0.00005855	     -0.00002342	     -0.00011710	     -0.00007494	     -0.00022482	     -0.00012646	     -0.00001144	     -0.00022424	     -0.00026908	      0.00250727	      0.00879668	      0.00611943	     -0.00820173	      0.01980315	     -0.01878324	      0.00250727	      0.00879668	      0.00611943	      0.00055245	      0.01835828	     -0.00964660	      0.00396025	      0.00489172	      0.01599767	      0.00000000	      0.00782558	      0.00000000	     -0.00718183	     -0.03318939	     -0.00645280	      0.01652688	     -0.00059232	     -0.00525070	     -0.00089242	      0.01495860	     -0.00611943	      0.00246477	      0.02158798	     -0.01784833	     -0.00599194	      0.01296129	     -0.00548199	     -0.01249383	      0.02736744	     -0.03063963	     -0.02345780	      0.01449114	     -0.00735181	     -0.01555354	      0.03161704	     -0.03828892
      0.63333333	     -0.32624784	      0.13818319	     -0.13818319	      0.32624784	     -0.06605855	      0.53386198	      0.23996729	     -0.23996729	     -0.53386198	      0.06605855	     99.26863739	     77.24207683	     -1.73256457	    -21.00871741	     27.76652377	     40.72471941	      0.14798087	      0.04205602	      0.18290767	      0.02102801	     32.05781571	    -11.18488919	     15.65852254	      1.06007490	     -7.06173034	     13.14135118	      8.52982857	    -39.26997266	    -17.87682618	     -1.12918761	      5.85412708	      9.55279392	    -17.89459178	     -8.30310050	    -10.66437332	     21.54025215	    -34.68617408	    -13.74828357	     -7.95190219	      4.91694122	      0.00081843	     -0.03078247	     -0.00481261	      0.01657516	     -0.01774291	     -0.00739230	      0.00454090	     -0.06684573	     -0.00333059	      0.00785328	     -0.18347991	     -0.00039137	     -0.00488695	      0.00140980	      0.00014108	     -0.00004450	     -0.00001780	     -0.00008899	     -0.00005696	     -0.00017087	     -0.00009611	     -0.00001093	     -0.00023050	     -0.00027660	      0.00253183	      0.00888285	      0.00617937	     -0.00828207	      0.01999713	     -0.01896724	      0.00253183	      0.00888285	      0.00617937	      0.00055786	      0.01853811	     -0.00974109	      0.00398843	      0.00493964	      0.01606576	      0.00000000	      0.00798076	      0.00000000	     -0.00725218	     -0.03351451	     -0.00658161	      0.01435154	     -0.00046312	     -0.00365632	     -0.00090116	      0.01510513	     -0.00617937	      0.00248891	      0.02179945	     -0.01802317	     -0.00605063	      0.01308825	     -0.00553569	     -0.01261622	      0.02763552	     -0.03093977	     -0.02368759	      0.01463309	     -0.00742383	     -0.01570590	      0.03192675	     -0.03866398
